<?xml version="1.0" encoding="UTF-8" standalone="no"?>
<!-- Created with Inkscape (http://www.inkscape.org/) -->

<svg
   width="331mm"
   height="210mm"
   viewBox="0 0 331 210"
   version="1.1"
   id="svg4858"
   xmlns="http://www.w3.org/2000/svg"
   xmlns:svg="http://www.w3.org/2000/svg">
  <defs
     id="defs4855" />
  <g
     id="layer1">
    <path
       style="fill:#f8fcfc;fill-opacity:0.84974092;stroke-width:1.10212"
       d="M 51.693586,137.43218 C 35.105114,149.18336 2.2078993,134.22423 4.4795137,111.30797 6.6501411,89.409835 28.025739,75.517266 48.284812,78.526577 c 0.835984,0.122837 13.555734,4.411561 13.878699,3.87968 2.057229,-3.388512 2.084035,-16.490016 3.187432,-20.086658 7.736818,-25.217851 39.783637,-42.954479 64.103107,-40.334045 6.3112,0.67911 11.05042,4.32611 13.67949,10.35331 1.25326,2.873312 -0.6678,9.31149 2.36847,9.136542 2.61983,-0.15793 7.57761,-8.709064 9.7394,-10.514051 16.1926,-13.519495 46.59952,-17.673984 65.69685,-10.215388 16.67878,6.513815 39.42861,27.333269 20.49707,44.489063 -2.92094,2.646938 -13.76693,11.942276 -8.1457,15.747914 9.46843,6.410099 32.1932,-6.84512 44.46935,-2.869446 21.02307,6.808262 24.52971,36.971322 6.08715,49.103122 C 221.48156,168.241 103.74119,98.94436 49.081681,140.43937"
       id="path369" />
    <path
       style="fill:#3941ff;stroke-width:3.7426;fill-opacity:0.89119172"
       d="M 37.180545,141.33172 C 21.167776,111.2172 59.427076,83.57393 80.041096,91.346665 c 12.981337,4.89474 23.871074,17.069905 35.319304,25.661755 36.51674,27.40563 59.08286,-10.11676 91.70567,-23.861735 31.74012,-13.373082 11.01405,5.56299 8.40606,10.984705 -9.02292,18.75767 12.16922,16.71117 18.78392,11.95395 26.70604,-19.206595 64.64547,-34.788876 88.83447,2.49233 13.30137,20.5007 2.03901,40.29618 -15.70516,41.90806 -32.50501,2.95275 -64.47038,-13.48328 -96.65245,-10.33858 -42.81797,4.18408 -135.076486,55.85696 -170.784936,5.72317 -4.290791,-6.02418 -2.308778,-13.68314 -6.157529,-20.86175"
       id="path6177" />
  </g>
</svg>
