<?xml version="1.0" encoding="UTF-8" standalone="no"?>
<!-- Created with Inkscape (http://www.inkscape.org/) -->

<svg
   width="48"
   height="48"
   viewBox="0 0 12.7 12.7"
   version="1.1"
   id="svg2929"
   xmlns="http://www.w3.org/2000/svg"
   xmlns:svg="http://www.w3.org/2000/svg">
  <defs
     id="defs2926" />
  <g
     id="layer1">
    <circle
       style="fill:#0e094e;fill-opacity:1;stroke:#535bf2;stroke-width:0.497264;stroke-dasharray:none;stroke-opacity:1"
       id="path29420"
       cx="6.3363371"
       cy="6.3363366"
       r="6.0267015" />
    <path
       id="path6352-8"
       style="fill:#fbfafe;stroke-width:0.296269"
       d="m 5.078854,4.016538 c -0.024758,0.010704 -0.051096,0.017528 -0.078517,0.022042 -0.037079,0.037136 -0.075591,0.072435 -0.1153671,0.106734 -0.054043,0.045362 -0.1010692,0.097795 -0.1520055,0.1463945 -0.04434,0.039358 -0.086618,0.081035 -0.1273206,0.1241123 -0.012732,0.01278 -0.025275,0.025358 -0.03809,0.038017 C 4.4144983,5.8001545 4.6245889,7.3202476 4.413863,8.5408172 L 4.3103776,8.1983537 C 3.9831153,6.8796045 1.6335442,8.5978486 3.1716844,9.5327548 3.5134703,9.740499 3.8984939,9.8323512 4.2779959,9.6683388 4.8840598,9.4064106 5.0839155,8.5569592 5.157113,7.962094 5.2303628,7.366804 5.2115178,6.7364795 5.1897371,6.1384923 5.1639617,5.430869 5.1201663,4.7234504 5.078854,4.016538 Z" />
    <path
       id="path6352-8-1"
       style="fill:#fbfafe;stroke-width:0.296269"
       d="M 8.5965467,3.2624715 C 8.2660712,4.7354574 8.5684101,6.5353642 8.3168568,7.9361867 L 8.2151593,7.5930007 C 7.8967666,6.2720801 5.536216,7.9745319 7.0680397,8.9197547 7.4084224,9.1297918 7.7928189,9.2242312 8.1734151,9.0627704 8.7812257,8.8049229 8.9867855,7.9568319 9.0639787,7.3624721 9.141228,6.767687 9.1266186,6.1372515 9.1088575,5.5391309 9.086891,4.7994608 9.045365,4.0598161 9.0074339,3.3208379 c -0.01613,-9.984e-4 -0.032311,-0.00213 -0.048425,-0.00386 -0.053464,-0.00736 -0.1070545,-0.01533 -0.1606181,-0.021949 -0.052387,-0.00595 -0.1036225,-0.017266 -0.1557294,-0.025238 -0.015448,-0.0019 -0.030873,-0.0044 -0.046115,-0.00732 z" />
    <path
       style="fill:#fbfafe;stroke-width:0.515896"
       d="M 4.2254915,4.7171661 C 4.9747106,2.5416276 12.583918,2.8237207 7.3203946,4.0573188 6.9065798,4.1543038 6.485658,4.2268005 6.0735519,4.3299254 5.6567283,4.4342309 4.6177394,4.9305302 4.2254915,4.7171661 Z"
       id="path12261" />
  </g>
</svg>
