<?xml version="1.0" encoding="UTF-8" standalone="no"?>
<!-- Created with Inkscape (http://www.inkscape.org/) -->

<svg
   width="48"
   height="48"
   viewBox="0 0 12.7 12.7"
   version="1.1"
   id="svg704"
   xml:space="preserve"
   inkscape:version="1.2.2 (732a01da63, 2022-12-09)"
   sodipodi:docname="classicicon.svg"
   xmlns:inkscape="http://www.inkscape.org/namespaces/inkscape"
   xmlns:sodipodi="http://sodipodi.sourceforge.net/DTD/sodipodi-0.dtd"
   xmlns="http://www.w3.org/2000/svg"
   xmlns:svg="http://www.w3.org/2000/svg"><sodipodi:namedview
     id="namedview706"
     pagecolor="#505050"
     bordercolor="#eeeeee"
     borderopacity="1"
     inkscape:showpageshadow="0"
     inkscape:pageopacity="0"
     inkscape:pagecheckerboard="0"
     inkscape:deskcolor="#505050"
     inkscape:document-units="mm"
     showgrid="false"
     inkscape:zoom="11.215057"
     inkscape:cx="27.151"
     inkscape:cy="23.851864"
     inkscape:window-width="1368"
     inkscape:window-height="842"
     inkscape:window-x="-6"
     inkscape:window-y="-6"
     inkscape:window-maximized="1"
     inkscape:current-layer="layer1" /><defs
     id="defs701" /><g
     inkscape:label="Layer 1"
     inkscape:groupmode="layer"
     id="layer1"><circle
       style="fill:#0e094e;fill-opacity:1;stroke:#535bf2;stroke-width:0.497264;stroke-dasharray:none;stroke-opacity:1"
       id="path29420"
       cx="6.3630857"
       cy="6.3340306"
       r="6.0267015" /><text
       xml:space="preserve"
       style="font-weight:bold;font-size:11.2889px;font-family:sans-serif;-inkscape-font-specification:'sans-serif, Bold';fill:#00c0fc;fill-opacity:1;stroke-width:3.24009"
       x="3.1619062"
       y="4.3799281"
       id="text23258"><tspan
         sodipodi:role="line"
         id="tspan23256"
         style="stroke-width:3.24009"
         x="3.1619062"
         y="4.3799281" /></text><text
       xml:space="preserve"
       style="font-weight:bold;font-size:11.2889px;font-family:sans-serif;-inkscape-font-specification:'sans-serif, Bold';fill:#00c0fc;fill-opacity:1;stroke-width:3.24009"
       x="4.2687783"
       y="2.1661844"
       id="text23262"><tspan
         sodipodi:role="line"
         id="tspan23260"
         style="stroke-width:3.24009"
         x="4.2687783"
         y="2.1661844" /></text><text
       xml:space="preserve"
       style="font-weight:bold;font-size:11.2889px;font-family:sans-serif;-inkscape-font-specification:'sans-serif, Bold';fill:none;fill-opacity:1;stroke:#00c8fc;stroke-width:0.426;stroke-dasharray:none;stroke-opacity:1"
       x="-2.7529407"
       y="3.9648511"
       id="text31777"><tspan
         sodipodi:role="line"
         id="tspan31775"
         style="stroke-width:0.426"
         x="-2.7529407"
         y="3.9648511" /></text><path
       id="path7490"
       style="fill:none;stroke:#ffffff;stroke-width:0.296035;stroke-dasharray:none;stroke-opacity:1"
       d="m 7.4222946,1.5850486 c -0.7222515,0.021068 0.084067,1.056276 0.01517,1.1436266 C 7.226908,2.9955945 6.8130182,2.5825112 6.5892159,2.7421011 6.418407,2.8639005 7.1052092,2.8406133 7.1482647,3.0394441 7.298855,3.7348755 6.5114125,3.1042508 6.4030408,3.4133603 6.3654548,3.5205564 6.8426545,3.4073039 6.8831223,3.51927 6.9614508,3.7359231 6.9542359,4.5402498 6.8135676,4.7325086 6.5167237,5.1382146 5.6171854,4.881666 5.2326465,5.3843755 c -0.6084443,0.7954266 0.35764,1.3438144 0.22749,2.1172009 -0.2177698,1.2940581 -2.1767908,1.2422678 -1.2247824,2.7292896 0.2455936,0.38361 0.6625114,0.677131 1.1442456,0.761259 0.5561291,0.09712 1.2957901,-0.04133 1.7806938,-0.313752 C 8.633252,9.8508354 6.9879443,9.1599086 7.1895807,8.1534436 7.3553753,7.3257814 8.330006,6.8802081 8.1387557,6.007403 8.0101763,5.4206045 7.097745,5.1674249 7.052035,4.5763781 6.9725254,3.5482904 7.7276377,3.9708147 7.8495561,3.6694325 7.8980611,3.5495276 7.0080819,3.4934946 7.3307757,3.1483366 7.4359819,3.0358069 8.1039986,3.1139265 7.9996464,2.9981733 7.4272919,2.3632975 7.5412905,1.8569734 7.5519892,2.126531 7.9005769,2.1432925 7.9244549,1.6391753 7.5875508,1.5949931 7.5251005,1.5868049 7.4704445,1.583644 7.4222946,1.5850486 Z m 0.042363,0.2282282 0.1636885,0.1243072 c -0.023296,0.027687 -0.047169,0.055059 -0.07008,0.083038 -0.012276,0.012713 -0.019066,0.028225 -0.02615,0.043756 -0.00719,0.015302 -0.013956,0.03056 -0.021444,0.045745 -0.00658,0.013614 -0.015776,0.026372 -0.024582,0.038785 -0.00394,0.00546 -0.00789,0.010639 -0.012032,0.015911 L 7.3061962,2.0444882 c 0.00183,-0.00237 0.00394,-0.00455 0.00577,-0.00696 0.00304,-0.00426 0.00708,-0.00992 0.00841,-0.011934 0.00678,-0.01366 0.013298,-0.027508 0.019876,-0.041269 0.014138,-0.030607 0.030016,-0.060261 0.052817,-0.08602 0.023489,-0.028632 0.047756,-0.056704 0.07165,-0.085026 z" /><path
       style="fill:none;stroke:#fcfcfc;stroke-width:0.0789426;stroke-dasharray:none;stroke-opacity:1"
       d="M 6.8791504,4.6721523 C 6.4030907,6.8144344 5.792013,8.9397258 5.4444305,11.107619"
       id="path10713" /><path
       style="fill:none;stroke:#fcfcfc;stroke-width:0.0789426;stroke-dasharray:none;stroke-opacity:1"
       d="M 7.1476138,4.6924394 C 6.671554,6.8347216 6.0604764,8.960013 5.7128939,11.127905"
       id="path10713-9" /><path
       style="fill:none;stroke:#fcfcfc;stroke-width:0.0789426;stroke-dasharray:none;stroke-opacity:1"
       d="M 7.0176874,4.664332 C 6.5416276,6.8066143 5.9305499,8.9319056 5.5829675,11.099798"
       id="path10713-9-2" /><path
       style="fill:none;stroke:#fcfcfc;stroke-width:0.0572751;stroke-dasharray:none;stroke-opacity:1"
       d="M 6.7234244,7.6295667 C 6.5728782,7.3001789 7.1373315,7.4430579 7.0115701,7.7600127 6.9374544,7.9468077 6.4901262,8.0598608 6.5404812,8.3262772 c 0.04308,0.2279449 0.2612109,0.071806 0.3458003,-0.013169"
       id="path13137-0" /><path
       style="fill:none;stroke:#fcfcfc;stroke-width:0.0572751;stroke-dasharray:none;stroke-opacity:1"
       d="M 5.9515165,7.5023332 C 6.2171582,7.247003 5.6365632,7.1861289 5.6332571,7.5248737 5.6313079,7.7245102 6.0053599,7.9837221 5.8570797,8.2147927 5.7302144,8.4124971 5.5862359,8.1919241 5.5396926,8.0836146"
       id="path13137-0-0" /></g></svg>
