<?xml version="1.0" encoding="UTF-8" standalone="no"?>
<!-- Created with Inkscape (http://www.inkscape.org/) -->

<svg
   width="48"
   height="48"
   viewBox="0 0 12.7 12.7"
   version="1.1"
   id="svg45178"
   inkscape:version="1.2.2 (732a01da63, 2022-12-09)"
   sodipodi:docname="houseicon.svg"
   xmlns:inkscape="http://www.inkscape.org/namespaces/inkscape"
   xmlns:sodipodi="http://sodipodi.sourceforge.net/DTD/sodipodi-0.dtd"
   xmlns="http://www.w3.org/2000/svg"
   xmlns:svg="http://www.w3.org/2000/svg">
  <sodipodi:namedview
     id="namedview45180"
     pagecolor="#505050"
     bordercolor="#eeeeee"
     borderopacity="1"
     inkscape:showpageshadow="0"
     inkscape:pageopacity="0"
     inkscape:pagecheckerboard="0"
     inkscape:deskcolor="#505050"
     inkscape:document-units="mm"
     showgrid="false"
     inkscape:zoom="10.524815"
     inkscape:cx="24.751028"
     inkscape:cy="24.751028"
     inkscape:window-width="1368"
     inkscape:window-height="842"
     inkscape:window-x="-6"
     inkscape:window-y="-6"
     inkscape:window-maximized="1"
     inkscape:current-layer="layer1" />
  <defs
     id="defs45175" />
  <g
     inkscape:label="Layer 1"
     inkscape:groupmode="layer"
     id="layer1">
    <circle
       style="fill:#0e094e;fill-opacity:1;stroke:#535bf2;stroke-width:0.497264;stroke-dasharray:none;stroke-opacity:1"
       id="path29420"
       cx="6.360167"
       cy="6.360167"
       r="6.0267015" />
    <text
       xml:space="preserve"
       style="font-weight:bold;font-size:11.2889px;font-family:sans-serif;-inkscape-font-specification:'sans-serif, Bold';fill:#00c0fc;fill-opacity:1;stroke-width:3.24009"
       x="3.1429679"
       y="4.2313461"
       id="text23258"><tspan
         sodipodi:role="line"
         id="tspan23256"
         style="stroke-width:3.24009"
         x="3.1429679"
         y="4.2313461" /></text>
    <text
       xml:space="preserve"
       style="font-weight:bold;font-size:11.2889px;font-family:sans-serif;-inkscape-font-specification:'sans-serif, Bold';fill:#00c0fc;fill-opacity:1;stroke-width:3.24009"
       x="4.2498398"
       y="2.0176022"
       id="text23262"><tspan
         sodipodi:role="line"
         id="tspan23260"
         style="stroke-width:3.24009"
         x="4.2498398"
         y="2.0176022" /></text>
    <text
       xml:space="preserve"
       style="font-weight:bold;font-size:11.2889px;font-family:sans-serif;-inkscape-font-specification:'sans-serif, Bold';fill:none;fill-opacity:1;stroke:#00c8fc;stroke-width:0.426;stroke-dasharray:none;stroke-opacity:1"
       x="-2.771879"
       y="3.8162689"
       id="text31777"><tspan
         sodipodi:role="line"
         id="tspan31775"
         style="stroke-width:0.426"
         x="-2.771879"
         y="3.8162689" /></text>
    <path
       style="fill:#ffffff;stroke:#fcfcfc;stroke-width:0"
       d="M 6.249801,3.5279508 C 5.4491558,3.8167346 2.3468118,5.149633 2.6624419,6.2643154 2.8075879,6.7769144 4.017203,6.2996914 4.117733,6.5124097 4.2266909,6.742961 4.062234,7.3670006 4.043641,7.6157486 4.029958,7.7988305 3.8223353,9.1145489 4.077922,9.2027144 4.5667611,9.3713413 5.2533127,9.1904204 5.7554879,9.2006244 6.2426523,9.2105244 6.7301254,9.1883934 7.217414,9.1870164 7.7547967,9.1854864 8.7937719,9.513598 8.7766543,8.8227264 8.7603153,8.1631975 8.3709858,7.077441 8.5731798,6.4485541 8.6862052,6.0970099 10.435466,6.6840374 9.9532739,5.5755136 9.6121251,4.7912384 7.2760852,3.9658507 6.4764991,3.477704"
       id="path48304"
       sodipodi:nodetypes="cssssscsssc" />
    <path
       style="fill:none;stroke:#fcfcfc;stroke-width:0"
       d="M 11.060364,9.6868907 C 10.971134,9.3484143 10.965636,8.992732 10.93063,8.6450658 10.720711,6.5602286 10.728609,6.5866366 13.116254,6.5759779 c 0.145615,-6.615e-4 1.140759,-0.1868157 1.186141,-0.09399 0.428558,0.8765794 0.09517,2.1956185 0.422298,3.0937038"
       id="path48334" />
    <path
       style="fill:none;stroke:#fefafa;stroke-width:0;stroke-opacity:1"
       d="m 11.519729,11.554763 c -0.256376,-2.706789 0.3958,-2.4663748 2.568208,-2.7892318 0.08236,-0.01224 0.506729,-0.1744443 0.570566,-0.033095 0.31707,0.7020708 0.0774,2.1819448 0.105905,2.9030778"
       id="path48336" />
    <path
       style="fill:none;stroke:#2345ad;stroke-width:0;stroke-opacity:1"
       d="M 9.5631258,8.2849944 C 9.5918085,8.2276298 9.6204914,8.1702655 9.6491741,8.1129012 10.132368,7.5396989 10.615561,6.9664965 11.098755,6.3932945"
       id="path48401" />
    <path
       style="fill:none;stroke:#2345ad;stroke-width:0;stroke-opacity:1"
       d="m 15.04241,8.3710409 c 0.127086,0.7783901 0.254173,1.5567802 0.381259,2.3351701"
       id="path48655" />
    <path
       style="fill:none;stroke:#2345ad;stroke-width:0;stroke-opacity:1"
       d="M 5.869673,7.8507901 C 7.9368575,3.6381295 6.8825141,6.2825198 6.800317,7.8031336"
       id="path48657" />
    <path
       style="fill:none;stroke:#0e094e;stroke-width:0.286583;stroke-dasharray:none;stroke-opacity:1"
       d="M 5.2368947,9.3743451 C 5.1722639,7.7822526 4.7486366,7.1703668 6.295214,7.0575866 7.9244534,6.938778 7.6717972,8.0400562 7.4418933,9.2480252"
       id="path48787" />
  </g>
</svg>
