<?xml version="1.0" encoding="UTF-8" standalone="no"?>
<!-- Created with Inkscape (http://www.inkscape.org/) -->

<svg
   width="331mm"
   height="210mm"
   viewBox="0 0 331 210"
   version="1.1"
   id="svg4858"
   sodipodi:docname="loadingcloud.svg"
   inkscape:version="1.2.2 (732a01da63, 2022-12-09)"
   xmlns:inkscape="http://www.inkscape.org/namespaces/inkscape"
   xmlns:sodipodi="http://sodipodi.sourceforge.net/DTD/sodipodi-0.dtd"
   xmlns="http://www.w3.org/2000/svg"
   xmlns:svg="http://www.w3.org/2000/svg">
  <sodipodi:namedview
     id="namedview7"
     pagecolor="#505050"
     bordercolor="#eeeeee"
     borderopacity="1"
     inkscape:showpageshadow="0"
     inkscape:pageopacity="0"
     inkscape:pagecheckerboard="0"
     inkscape:deskcolor="#505050"
     inkscape:document-units="mm"
     showgrid="false"
     inkscape:zoom="0.29734127"
     inkscape:cx="627.22541"
     inkscape:cy="398.53196"
     inkscape:window-width="1368"
     inkscape:window-height="842"
     inkscape:window-x="-6"
     inkscape:window-y="-6"
     inkscape:window-maximized="1"
     inkscape:current-layer="svg4858" />
  <defs
     id="defs4855" />
  <path
     style="fill:#f8fcfc;fill-opacity:0.88601035;stroke-width:1.22017"
     d="M 58.884347,166.45704 C 40.70668,179.60112 4.6580265,162.86901 7.1472632,137.23603 9.5258164,112.74224 32.949161,97.203102 55.148995,100.56899 c 0.915995,0.1406 14.854409,4.9346 15.208329,4.33953 2.254469,-3.79015 2.283647,-18.444587 3.492784,-22.46777 8.478003,-28.206958 43.594952,-48.045917 70.244162,-45.114821 6.91583,0.759226 12.10903,4.838652 14.98998,11.580287 1.37328,3.212647 -0.73216,10.415434 2.59542,10.219661 2.87099,-0.175753 8.30353,-9.74128 10.67248,-11.760256 17.74379,-15.122278 51.06366,-19.769014 71.99052,-11.426327 18.27658,7.286095 43.20582,30.573205 22.46061,49.762603 -3.20069,2.959575 -15.08572,13.35779 -8.92599,17.614713 10.37547,7.16975 35.27727,-7.656564 48.72943,-3.20913 23.0371,7.61509 26.87968,41.35349 6.67036,54.92358 C 244.938,200.91811 115.91822,123.40725 56.022421,169.82118"
     id="path369-0-1" />
</svg>
