<?xml version="1.0" encoding="UTF-8" standalone="no"?>
<!-- Created with Inkscape (http://www.inkscape.org/) -->

<svg
   width="48"
   height="48"
   viewBox="0 0 12.7 12.7"
   version="1.1"
   id="svg16850"
   inkscape:version="1.2.2 (732a01da63, 2022-12-09)"
   sodipodi:docname="natureicon.svg"
   xmlns:inkscape="http://www.inkscape.org/namespaces/inkscape"
   xmlns:sodipodi="http://sodipodi.sourceforge.net/DTD/sodipodi-0.dtd"
   xmlns="http://www.w3.org/2000/svg"
   xmlns:svg="http://www.w3.org/2000/svg">
  <sodipodi:namedview
     id="namedview16852"
     pagecolor="#505050"
     bordercolor="#eeeeee"
     borderopacity="1"
     inkscape:showpageshadow="0"
     inkscape:pageopacity="0"
     inkscape:pagecheckerboard="0"
     inkscape:deskcolor="#505050"
     inkscape:document-units="mm"
     showgrid="false"
     inkscape:zoom="10.132738"
     inkscape:cx="24.129707"
     inkscape:cy="24.031017"
     inkscape:window-width="1368"
     inkscape:window-height="842"
     inkscape:window-x="-6"
     inkscape:window-y="-6"
     inkscape:window-maximized="1"
     inkscape:current-layer="layer1" />
  <defs
     id="defs16847" />
  <g
     inkscape:label="Layer 1"
     inkscape:groupmode="layer"
     id="layer1">
    <circle
       style="fill:#0e094e;fill-opacity:1;stroke:#535bf2;stroke-width:0.497264;stroke-dasharray:none;stroke-opacity:1"
       id="path29420"
       cx="6.3446865"
       cy="6.345139"
       r="6.0267015" />
    <text
       xml:space="preserve"
       style="font-weight:bold;font-size:11.2889px;font-family:sans-serif;-inkscape-font-specification:'sans-serif, Bold';fill:#00c0fc;fill-opacity:1;stroke-width:3.24009"
       x="3.1274869"
       y="4.2163181"
       id="text23258"><tspan
         sodipodi:role="line"
         id="tspan23256"
         style="stroke-width:3.24009"
         x="3.1274869"
         y="4.2163181" /></text>
    <text
       xml:space="preserve"
       style="font-weight:bold;font-size:11.2889px;font-family:sans-serif;-inkscape-font-specification:'sans-serif, Bold';fill:#00c0fc;fill-opacity:1;stroke-width:3.24009"
       x="4.2343593"
       y="2.0025742"
       id="text23262"><tspan
         sodipodi:role="line"
         id="tspan23260"
         style="stroke-width:3.24009"
         x="4.2343593"
         y="2.0025742" /></text>
    <text
       xml:space="preserve"
       style="font-weight:bold;font-size:11.2889px;font-family:sans-serif;-inkscape-font-specification:'sans-serif, Bold';fill:none;fill-opacity:1;stroke:#00c8fc;stroke-width:0.426;stroke-dasharray:none;stroke-opacity:1"
       x="-2.7873597"
       y="3.8012409"
       id="text31777"><tspan
         sodipodi:role="line"
         id="tspan31775"
         style="stroke-width:0.426"
         x="-2.7873597"
         y="3.8012409" /></text>
    <path
       id="path23259"
       style="fill:#ffffff;fill-opacity:1;stroke:#fcfcfc;stroke-width:0.17785;stroke-dasharray:none"
       d="M 7.2953885,3.7295812 C 6.5586292,3.7246549 5.9400173,4.2864038 6.0842802,5.1166692 6.2009334,5.7880295 6.9703101,7.0075005 6.380141,7.6095852 5.8427999,8.157777 5.074596,8.1805816 4.3644447,8.0652878 4.146812,8.0299503 3.9278608,7.99125 3.7147035,7.9354163 3.6927947,7.9296879 2.738754,7.3183051 2.1157627,6.6576878 2.1395819,6.823319 4.0212411,8.32836 4.1400515,8.414173 5.2764894,9.2349808 7.9105025,9.7052074 8.8804874,8.4467465 9.6980291,7.5776466 9.3949769,7.1688667 8.8133049,6.1187764 8.5636636,5.6169936 8.8354425,5.7135065 8.6893897,5.4186772 8.699303,5.3105015 8.7237795,5.2042911 8.7462561,5.0982253 l 0.045724,0.00961 C 8.785837,5.0058022 8.7804651,4.9035616 8.7658555,4.802365 c -0.00686,-0.047486 -0.013957,-0.082322 -0.021901,-0.1206498 -0.00172,-0.00614 -0.00323,-0.012315 -0.005,-0.018443 C 8.7002763,4.5338841 8.6564926,4.4060667 8.6029399,4.282111 8.5211538,4.2296607 8.4424901,4.182002 8.382389,4.1387914 8.1561209,3.9761101 7.9360086,3.8504035 7.6634856,3.7791475 7.5394063,3.7467041 7.4159484,3.7303873 7.2953885,3.7295812 Z"
       sodipodi:nodetypes="ssscccccccccsccccss" />
    <path
       id="path23319"
       style="fill:#ffffff;fill-opacity:1;stroke:#fcfcfc;stroke-width:0;stroke-dasharray:none"
       d="m 9.4211639,3.949558 c -0.3458633,0.00428 -0.6961418,0.2817004 -1.0368912,0.2508534 -0.00392,0.00323 -0.00801,0.0062 -0.012005,0.00937 C 8.3935427,4.7002426 8.3996797,5.424045 8.924362,5.6314196 9.1949541,5.7383632 9.6880144,5.2956633 9.7104946,5.0266802 9.7378531,4.6993896 8.5405284,5.6091259 9.0117525,4.8735459 9.0804956,4.7662381 9.8824766,4.1321027 9.7374999,4.039556 9.6328266,3.9727378 9.5271679,3.9482488 9.4211602,3.949558 Z"
       sodipodi:nodetypes="cccscsscc" />
    <path
       style="fill:#ffffff;fill-opacity:1;stroke:#fcfcfc;stroke-width:0;stroke-dasharray:none"
       d="M 6.4391384,9.2995921 C 6.2098615,9.136712 5.8025282,9.4131783 5.6012602,9.5584083 5.365985,9.7281773 5.2640083,10.284302 5.7004012,10.132191 5.9730098,10.037171 6.1683365,9.6594733 6.5374021,9.5496353 7.2657257,9.3328753 7.737756,9.9549351 8.2500076,9.8268751 8.4088351,9.7871653 8.1715311,9.5667703 8.1236683,9.5487573 7.7685762,9.4151233 7.4915405,9.1456687 7.0936483,9.1609718"
       id="path24895" />
    <path
       style="fill:#ffffff;fill-opacity:1;stroke:#fcfcfc;stroke-width:0;stroke-dasharray:none"
       d="M 3.8107123,2.6797699 C 3.7820198,3.1518785 4.3328664,4.4724131 3.6430159,4.6955095 3.5534068,4.7244888 3.3864463,4.7539276 3.2882298,4.7183245 2.923667,4.5861731 3.3636434,3.7160654 3.8586254,4.2300751"
       id="path26395" />
    <path
       style="fill:#ffffff;fill-opacity:1;stroke:#fcfcfc;stroke-width:0;stroke-dasharray:none"
       d="m 3.8225629,2.7440302 c 0.2165964,0.2948629 0.5938001,0.3274236 0.7289657,0.7186847 0.011337,0.032816 0.057182,0.3164128 0.00342,0.3353863 C 4.4979171,3.8182307 4.367331,3.4015821 4.3336387,3.3486379 4.1797147,3.1067622 3.9722287,3.3033889 3.8111562,2.9208496"
       id="path26397" />
  </g>
</svg>
