<?xml version="1.0" encoding="UTF-8" standalone="no"?>
<!-- Created with Inkscape (http://www.inkscape.org/) -->

<svg
   width="48"
   height="48"
   viewBox="0 0 12.7 12.7"
   version="1.1"
   id="svg16850"
   inkscape:version="1.2.2 (732a01da63, 2022-12-09)"
   sodipodi:docname="natureicon.svg"
   xmlns:inkscape="http://www.inkscape.org/namespaces/inkscape"
   xmlns:sodipodi="http://sodipodi.sourceforge.net/DTD/sodipodi-0.dtd"
   xmlns="http://www.w3.org/2000/svg"
   xmlns:svg="http://www.w3.org/2000/svg">
  <sodipodi:namedview
     id="namedview16852"
     pagecolor="#505050"
     bordercolor="#eeeeee"
     borderopacity="1"
     inkscape:showpageshadow="0"
     inkscape:pageopacity="0"
     inkscape:pagecheckerboard="0"
     inkscape:deskcolor="#505050"
     inkscape:document-units="mm"
     showgrid="false"
     inkscape:zoom="10.132738"
     inkscape:cx="24.031016"
     inkscape:cy="24.031016"
     inkscape:window-width="1368"
     inkscape:window-height="842"
     inkscape:window-x="-6"
     inkscape:window-y="-6"
     inkscape:window-maximized="1"
     inkscape:current-layer="layer1" />
  <defs
     id="defs16847" />
  <g
     inkscape:label="Layer 1"
     inkscape:groupmode="layer"
     id="layer1">
    <circle
       style="fill:#0e094e;fill-opacity:1;stroke:#535bf2;stroke-width:0.497264;stroke-dasharray:none;stroke-opacity:1"
       id="path29420"
       cx="6.3446865"
       cy="6.345139"
       r="6.0267015" />
    <text
       xml:space="preserve"
       style="font-weight:bold;font-size:11.2889px;font-family:sans-serif;-inkscape-font-specification:'sans-serif, Bold';fill:#00c0fc;fill-opacity:1;stroke-width:3.24009"
       x="3.1274869"
       y="4.2163181"
       id="text23258"><tspan
         sodipodi:role="line"
         id="tspan23256"
         style="stroke-width:3.24009"
         x="3.1274869"
         y="4.2163181" /></text>
    <text
       xml:space="preserve"
       style="font-weight:bold;font-size:11.2889px;font-family:sans-serif;-inkscape-font-specification:'sans-serif, Bold';fill:#00c0fc;fill-opacity:1;stroke-width:3.24009"
       x="4.2343593"
       y="2.0025742"
       id="text23262"><tspan
         sodipodi:role="line"
         id="tspan23260"
         style="stroke-width:3.24009"
         x="4.2343593"
         y="2.0025742" /></text>
    <text
       xml:space="preserve"
       style="font-weight:bold;font-size:11.2889px;font-family:sans-serif;-inkscape-font-specification:'sans-serif, Bold';fill:none;fill-opacity:1;stroke:#00c8fc;stroke-width:0.426;stroke-dasharray:none;stroke-opacity:1"
       x="-2.7873597"
       y="3.8012409"
       id="text31777"><tspan
         sodipodi:role="line"
         id="tspan31775"
         style="stroke-width:0.426"
         x="-2.7873597"
         y="3.8012409" /></text>
    <path
       id="path23259"
       style="fill:#ffffff;fill-opacity:1;stroke:#fcfcfc;stroke-width:0.197508;stroke-dasharray:none"
       d="M 7.255371,3.243291 C 6.4371759,3.2378202 5.7501874,3.8616605 5.910396,4.7836971 6.0399432,5.5292644 6.8943609,6.8835264 6.238959,7.5521609 5.6422244,8.1609456 4.7891091,8.1862709 4.0004631,8.0582334 3.758775,8.0189899 3.5156226,7.976012 3.2789045,7.9140069 3.2545741,7.9076453 2.195081,7.2286849 1.503229,6.495048 1.529681,6.6789869 3.6193244,8.3503835 3.7512672,8.4456817 5.0133182,9.3572153 7.938475,9.8794171 9.0156746,8.4818556 9.9235811,7.5166921 9.5870318,7.0627287 8.9410662,5.8965695 8.6638315,5.3393235 8.9656507,5.4465042 8.8034544,5.1190867 8.8144634,4.9989541 8.8416454,4.881004 8.8666064,4.7632145 l 0.050778,0.010667 C 8.9105622,4.6605757 8.9045966,4.5470342 8.8883721,4.4346521 8.8807584,4.3819174 8.8728727,4.3432312 8.8640499,4.3006666 8.8621395,4.2938498 8.8604637,4.2869903 8.8585027,4.2801848 8.8155443,4.1364954 8.7669211,3.99455 8.7074491,3.8568932 8.616623,3.7986454 8.5292644,3.7457189 8.4625202,3.6977321 8.2112421,3.5170693 7.9668003,3.3774681 7.6641547,3.298336 7.5263606,3.2623065 7.3892567,3.2441862 7.255371,3.243291 Z"
       sodipodi:nodetypes="ssscccccccccsccccss" />
    <path
       id="path23319"
       style="fill:#ffffff;fill-opacity:1;stroke:#fcfcfc;stroke-width:0;stroke-dasharray:none"
       d="m 9.6161133,3.4875823 c -0.3840924,0.00475 -0.773088,0.3128374 -1.1515012,0.2785808 -0.00435,0.00359 -0.0089,0.00688 -0.013332,0.010402 0.023627,0.544673 0.030442,1.3484789 0.6131185,1.5787751 C 9.3649,5.4741084 9.9124594,4.9824758 9.9374244,4.6837614 9.9678069,4.3202946 8.6381391,5.3305861 9.1614487,4.5137008 9.2377901,4.394532 10.128416,3.6903041 9.9674147,3.587528 9.8511716,3.5133242 9.7338342,3.4861284 9.6161092,3.4875823 Z"
       sodipodi:nodetypes="cccscsscc" />
    <path
       style="fill:#ffffff;fill-opacity:1;stroke:#fcfcfc;stroke-width:0;stroke-dasharray:none"
       d="M 6.4391384,9.2995921 C 6.2098615,9.136712 5.8025282,9.4131783 5.6012602,9.5584083 5.365985,9.7281773 5.2640083,10.284302 5.7004012,10.132191 5.9730098,10.037171 6.1683365,9.6594733 6.5374021,9.5496353 7.2657257,9.3328753 7.737756,9.9549351 8.2500076,9.8268751 8.4088351,9.7871653 8.1715311,9.5667703 8.1236683,9.5487573 7.7685762,9.4151233 7.4915405,9.1456687 7.0936483,9.1609718"
       id="path24895" />
    <path
       style="fill:#ffffff;fill-opacity:1;stroke:#fcfcfc;stroke-width:0;stroke-dasharray:none"
       d="M 3.8107123,2.6797699 C 3.7820198,3.1518785 4.3328664,4.4724131 3.6430159,4.6955095 3.5534068,4.7244888 3.3864463,4.7539276 3.2882298,4.7183245 2.923667,4.5861731 3.3636434,3.7160654 3.8586254,4.2300751"
       id="path26395" />
    <path
       style="fill:#ffffff;fill-opacity:1;stroke:#fcfcfc;stroke-width:0;stroke-dasharray:none"
       d="m 3.8225629,2.7440302 c 0.2165964,0.2948629 0.5938001,0.3274236 0.7289657,0.7186847 0.011337,0.032816 0.057182,0.3164128 0.00342,0.3353863 C 4.4979171,3.8182307 4.367331,3.4015821 4.3336387,3.3486379 4.1797147,3.1067622 3.9722287,3.3033889 3.8111562,2.9208496"
       id="path26397" />
  </g>
</svg>
