<?xml version="1.0" encoding="UTF-8" standalone="no"?>
<!-- Created with Inkscape (http://www.inkscape.org/) -->

<svg
   width="48"
   height="48"
   viewBox="0 0 12.7 12.7"
   version="1.1"
   id="svg5"
   inkscape:version="1.2.2 (732a01da63, 2022-12-09)"
   sodipodi:docname="skysuplogo.svg"
   xmlns:inkscape="http://www.inkscape.org/namespaces/inkscape"
   xmlns:sodipodi="http://sodipodi.sourceforge.net/DTD/sodipodi-0.dtd"
   xmlns="http://www.w3.org/2000/svg"
   xmlns:svg="http://www.w3.org/2000/svg">
  <sodipodi:namedview
     id="namedview7"
     pagecolor="#505050"
     bordercolor="#eeeeee"
     borderopacity="1"
     inkscape:showpageshadow="0"
     inkscape:pageopacity="0"
     inkscape:pagecheckerboard="0"
     inkscape:deskcolor="#505050"
     inkscape:document-units="mm"
     showgrid="false"
     inkscape:zoom="4.5748759"
     inkscape:cx="43.389155"
     inkscape:cy="33.334237"
     inkscape:window-width="1368"
     inkscape:window-height="842"
     inkscape:window-x="-6"
     inkscape:window-y="-6"
     inkscape:window-maximized="1"
     inkscape:current-layer="layer1" />
  <defs
     id="defs2" />
  <g
     inkscape:label="Layer 1"
     inkscape:groupmode="layer"
     id="layer1">
    <path
       style="fill:#f8fcfc;fill-opacity:0.989637;stroke-width:0.0540171"
       d="M 2.2984121,8.1946084 C 1.5991464,8.8642704 0.21240632,8.0117974 0.30816288,6.7058828 0.39966563,5.4579767 1.300724,4.6662924 2.1547186,4.8377825 c 0.035242,0.00702 0.5714251,0.2513984 0.5850392,0.2210847 0.086718,-0.1930978 0.087847,-0.9397104 0.1343619,-1.14467 0.3261368,-1.4370776 1.6770283,-2.447827 2.7021855,-2.2984974 0.2660395,0.038752 0.4658163,0.2465286 0.5766404,0.5899959 0.052831,0.163741 -0.028146,0.5306304 0.099839,0.520662 C 6.3632198,2.7177361 6.5722095,2.2300606 6.6633375,2.1272037 7.345915,1.356775 8.6276802,1.1200234 9.4327044,1.5450581 10.135776,1.9162637 11.094766,3.1026892 10.296731,4.080337 10.173603,4.231182 9.7164038,4.7608947 9.95336,4.9777605 c 0.399129,0.3652868 1.357063,-0.3900837 1.874548,-0.1635244 0.8862,0.3879838 1.034018,2.1068748 0.256596,2.7982263 -2.6288984,2.3378347 -7.592093,-1.611138 -9.8961949,0.753519"
       id="path369" />
    <path
       style="fill:#3941ff;fill-opacity:1;stroke-width:2.85055"
       d="M 4.206326,9.9611031 C 2.5548573,9.9037061 1.362381,8.7014245 2.3897071,7.1853191 2.8413474,6.5187985 3.8052947,5.9016976 4.6484235,6.0385666 5.0107141,6.0973785 5.4798276,6.2532671 5.7389314,6.515487 5.8499019,6.627792 5.8800549,7.0627788 5.9666792,6.930783 6.6680203,5.8620931 7.5733174,4.6341456 9.1015523,5.2106543 10.308634,5.666012 10.945749,7.2118515 9.4016441,7.7265435 8.9942988,7.8623223 10.25599,7.4962953 10.679707,7.5657838 c 1.0455,0.1714587 1.935856,1.2396404 1.712122,2.3256563 C 12.138899,11.119186 10.271598,11.499406 9.3132242,11.16948 8.9307731,11.037819 8.3103201,10.889256 8.1530527,10.456779 8.1191547,10.363549 8.1443427,10.0621 8.1637697,10.159374 8.5792136,12.236549 3.3989578,12.66884 4.206326,9.9611031 Z"
       id="path2669" />
  </g>
</svg>
